<?xml version="1.0"?>
<svg width="640" height="480" xmlns="http://www.w3.org/2000/svg" xmlns:svg="http://www.w3.org/2000/svg" stroke="null" style="vector-effect: non-scaling-stroke;">
 <!-- Created with SVG-edit - http://svg-edit.googlecode.com/ -->
 <g stroke="null">
  <title stroke="null">Layer 1</title>
  <g stroke="null" style="vector-effect: non-scaling-stroke;" id="svg_67">
   <g stroke="null" style="vector-effect: non-scaling-stroke;" id="svg_10">
    <rect stroke="#000000" style="vector-effect: non-scaling-stroke;" id="svg_1" height="36.999998" width="130.000001" y="133" x="87" stroke-width="2" fill="#ffffaa"/>
    <text stroke="#000000" style="vector-effect: non-scaling-stroke;" xml:space="preserve" text-anchor="middle" font-family="serif" font-size="24" id="svg_6" y="160" x="152" stroke-linecap="null" stroke-linejoin="null" stroke-dasharray="null" stroke-width="0" fill="#000000">Renderer #1</text>
   </g>
   <g stroke="null" style="vector-effect: non-scaling-stroke;" id="svg_45">
    <g stroke="null" style="vector-effect: non-scaling-stroke;" id="svg_39">
     <text stroke="#000000" style="vector-effect: non-scaling-stroke;" id="svg_40" xml:space="preserve" text-anchor="middle" font-family="serif" font-size="24" y="141" x="217.015625" stroke-linecap="null" stroke-linejoin="null" stroke-dasharray="null" stroke-width="0" fill="#000000">Renderer #n</text>
     <g stroke="null" style="vector-effect: non-scaling-stroke;" id="svg_41">
      <g stroke="null" style="vector-effect: non-scaling-stroke;" id="svg_42">
       <rect stroke="#000000" style="vector-effect: non-scaling-stroke;" id="svg_43" height="36.999998" width="130.000001" y="115.5" x="152" stroke-width="2" fill="#ffffaa"/>
      </g>
     </g>
    </g>
    <text stroke="#000000" style="vector-effect: non-scaling-stroke;" id="svg_44" xml:space="preserve" text-anchor="middle" font-family="serif" font-size="24" y="142" x="209.507813" stroke-linecap="null" stroke-linejoin="null" stroke-dasharray="null" stroke-width="0" fill="#000000">Renderer #</text>
   </g>
   <g stroke="null" style="vector-effect: non-scaling-stroke;" id="svg_46">
    <g stroke="null" style="vector-effect: non-scaling-stroke;" id="svg_47">
     <text stroke="#000000" style="vector-effect: non-scaling-stroke;" transform="matrix(1,0,0,0.9729729890823364,0,7.040536344051361) " id="svg_48" xml:space="preserve" text-anchor="middle" font-family="serif" font-size="24" y="118.472224" x="283.015625" stroke-linecap="null" stroke-linejoin="null" stroke-dasharray="null" stroke-width="0" fill="#000000">Renderer #n</text>
     <g stroke="null" style="vector-effect: non-scaling-stroke;" id="svg_49">
      <g stroke="null" style="vector-effect: non-scaling-stroke;" id="svg_50">
       <rect stroke="#000000" style="vector-effect: non-scaling-stroke;" id="svg_51" height="35.999999" width="130.000001" y="97.499999" x="218" stroke-width="2" fill="#ffffaa"/>
      </g>
     </g>
    </g>
    <text stroke="#000000" style="vector-effect: non-scaling-stroke;" transform="matrix(1,0,0,0.9729729890823364,0,7.040536344051361) " id="svg_52" xml:space="preserve" text-anchor="middle" font-family="serif" font-size="24" y="119.472224" x="275.507813" stroke-linecap="null" stroke-linejoin="null" stroke-dasharray="null" stroke-width="0" fill="#000000">Renderer #</text>
   </g>
   <g stroke="null" style="vector-effect: non-scaling-stroke;" id="svg_60">
    <g stroke="null" style="vector-effect: non-scaling-stroke;" id="svg_61">
     <text stroke="#000000" style="vector-effect: non-scaling-stroke;" id="svg_62" transform="matrix(1,0,0,0.9729729890823364,0,7.040536344051361) " xml:space="preserve" text-anchor="middle" font-family="serif" font-size="24" y="99.458336" x="348.015625" stroke-linecap="null" stroke-linejoin="null" stroke-dasharray="null" stroke-width="0" fill="#000000">Renderer #n</text>
     <g stroke="null" style="vector-effect: non-scaling-stroke;" id="svg_63">
      <g stroke="null" style="vector-effect: non-scaling-stroke;" id="svg_64">
       <rect stroke="#000000" style="vector-effect: non-scaling-stroke;" id="svg_65" height="35.999999" width="130.000001" y="78.999999" x="283" stroke-width="2" fill="#ffffaa"/>
      </g>
     </g>
    </g>
    <text stroke="#000000" style="vector-effect: non-scaling-stroke;" id="svg_66" transform="matrix(1,0,0,0.9729729890823364,0,7.040536344051361) " xml:space="preserve" text-anchor="middle" font-family="serif" font-size="24" y="100.458336" x="340.507813" stroke-linecap="null" stroke-linejoin="null" stroke-dasharray="null" stroke-width="0" fill="#000000">Renderer #</text>
   </g>
   <g stroke="null" style="vector-effect: non-scaling-stroke;" id="svg_53">
    <g stroke="null" style="vector-effect: non-scaling-stroke;" id="svg_54">
     <text stroke="#000000" style="vector-effect: non-scaling-stroke;" id="svg_55" transform="matrix(1,0,0,0.9729729890823364,0,7.040536344051361) " xml:space="preserve" text-anchor="middle" font-family="serif" font-size="24" y="79.930558" x="414.015625" stroke-linecap="null" stroke-linejoin="null" stroke-dasharray="null" stroke-width="0" fill="#000000">Renderer #n</text>
     <g stroke="null" style="vector-effect: non-scaling-stroke;" id="svg_56">
      <g stroke="null" style="vector-effect: non-scaling-stroke;" id="svg_57">
       <rect stroke="#000000" style="vector-effect: non-scaling-stroke;" id="svg_58" height="35.999999" width="130.000001" y="59.999999" x="349" stroke-width="2" fill="#ffffaa"/>
      </g>
     </g>
    </g>
    <text stroke="#000000" style="vector-effect: non-scaling-stroke;" id="svg_59" transform="matrix(1,0,0,0.9729729890823364,0,7.040536344051361) " xml:space="preserve" text-anchor="middle" font-family="serif" font-size="24" y="80.930558" x="406.507813" stroke-linecap="null" stroke-linejoin="null" stroke-dasharray="null" stroke-width="0" fill="#000000">Renderer #</text>
   </g>
   <g stroke="null" style="vector-effect: non-scaling-stroke;" id="svg_17">
    <text stroke="#000000" style="vector-effect: non-scaling-stroke;" id="svg_7" xml:space="preserve" text-anchor="middle" font-family="serif" font-size="24" y="68" x="480.015625" stroke-linecap="null" stroke-linejoin="null" stroke-dasharray="null" stroke-width="0" fill="#000000">Renderer #n</text>
    <g stroke="null" style="vector-effect: non-scaling-stroke;" id="svg_11">
     <g stroke="null" style="vector-effect: non-scaling-stroke;" id="svg_14">
      <rect stroke="#000000" style="vector-effect: non-scaling-stroke;" id="svg_12" height="36.999998" width="130.000001" y="42.5" x="415" stroke-width="2" fill="#ffffaa"/>
     </g>
    </g>
    <text stroke="#000000" style="vector-effect: non-scaling-stroke;" id="svg_16" xml:space="preserve" text-anchor="middle" font-family="serif" font-size="24" y="69" x="479.507813" stroke-linecap="null" stroke-linejoin="null" stroke-dasharray="null" stroke-width="0" fill="#000000">Renderer #n</text>
   </g>
  </g>
  <g id="svg_73">
   <rect stroke="#000000" id="svg_68" height="88" width="107" y="274" x="58" stroke-linecap="null" stroke-linejoin="null" stroke-dasharray="null" stroke-width="2" fill="#cccccc"/>
   <text stroke="#000000" id="svg_8" xml:space="preserve" text-anchor="middle" font-family="serif" font-size="24" y="328" x="111.015625" stroke-linecap="null" stroke-linejoin="null" stroke-dasharray="null" stroke-width="0" fill="#000000">Node #1</text>
  </g>
  <g id="svg_84">
   <rect id="svg_85" stroke="#000000" height="88" width="107" y="293" x="88.5" stroke-linecap="null" stroke-linejoin="null" stroke-dasharray="null" stroke-width="2" fill="#cccccc"/>
   <text id="svg_86" stroke="#000000" xml:space="preserve" text-anchor="middle" font-family="serif" font-size="24" y="347" x="141.515625" stroke-linecap="null" stroke-linejoin="null" stroke-dasharray="null" stroke-width="0" fill="#000000">Node #</text>
  </g>
  <g id="svg_77">
   <rect id="svg_75" stroke="#000000" height="88" width="107" y="311" x="125.5" stroke-linecap="null" stroke-linejoin="null" stroke-dasharray="null" stroke-width="2" fill="#cccccc"/>
   <text id="svg_76" stroke="#000000" xml:space="preserve" text-anchor="middle" font-family="serif" font-size="24" y="365" x="178.515625" stroke-linecap="null" stroke-linejoin="null" stroke-dasharray="null" stroke-width="0" fill="#000000">Node #</text>
  </g>
  <g id="svg_81">
   <rect id="svg_82" stroke="#000000" height="88" width="107" y="329" x="162.5" stroke-linecap="null" stroke-linejoin="null" stroke-dasharray="null" stroke-width="2" fill="#cccccc"/>
   <text id="svg_83" stroke="#000000" xml:space="preserve" text-anchor="middle" font-family="serif" font-size="24" y="383" x="215.515625" stroke-linecap="null" stroke-linejoin="null" stroke-dasharray="null" stroke-width="0" fill="#000000">Node #</text>
  </g>
  <g id="svg_78">
   <rect id="svg_79" stroke="#000000" height="88" width="107" y="347" x="199.5" stroke-linecap="null" stroke-linejoin="null" stroke-dasharray="null" stroke-width="2" fill="#cccccc"/>
   <text id="svg_80" stroke="#000000" xml:space="preserve" text-anchor="middle" font-family="serif" font-size="24" y="401" x="252.515625" stroke-linecap="null" stroke-linejoin="null" stroke-dasharray="null" stroke-width="0" fill="#000000">Node #</text>
  </g>
  <g id="svg_90">
   <rect id="svg_88" stroke="#000000" height="88" width="107" y="365" x="237.5" stroke-linecap="null" stroke-linejoin="null" stroke-dasharray="null" stroke-width="2" fill="#cccccc"/>
   <text id="svg_89" stroke="#000000" xml:space="preserve" text-anchor="middle" font-family="serif" font-size="24" y="419" x="290.515625" stroke-linecap="null" stroke-linejoin="null" stroke-dasharray="null" stroke-width="0" fill="#000000">Node #n</text>
  </g>
  <g id="svg_92">
   <rect stroke="#000000" id="svg_91" height="70.000001" width="183.999999" y="212.999999" x="356.000001" stroke-linecap="null" stroke-linejoin="null" stroke-dasharray="null" stroke-width="2" fill="#56ffff"/>
   <text stroke="#000000" xml:space="preserve" text-anchor="middle" font-family="serif" font-size="24" id="svg_5" y="257" x="454" stroke-linecap="null" stroke-linejoin="null" stroke-dasharray="null" stroke-width="0" fill="#000000">Master</text>
  </g>
  <path stroke="#000000" transform="rotate(-39.60098648071289 392.1171569824219,325.55224609374994) " id="svg_94" d="m329.836494,325.552263l36.112471,-7.500022l0,3.750001l52.336416,0l0,-3.750001l36.112454,7.500022l-36.112454,7.499982l0,-3.749991l-52.336416,0l0,3.749991l-36.112471,-7.499982z" stroke-linecap="null" stroke-linejoin="null" stroke-dasharray="null" stroke-width="2" fill="#ff0000"/>
  <path stroke="#000000" id="svg_95" transform="rotate(-13.444253921508789 262.25143432617165,249.28465270996097) " d="m165.282224,249.284669l56.226069,-7.500021l0,3.75l81.486282,0l0,-3.75l56.226043,7.500021l-56.226043,7.499982l0,-3.749991l-81.486282,0l0,3.749991l-56.226069,-7.499982z" stroke-linecap="null" stroke-linejoin="null" stroke-dasharray="null" stroke-width="2" fill="#ff0000"/>
  <path stroke="#000000" id="svg_96" transform="rotate(-25.94736671447754 317.8339538574222,306.2372436523438) " d="m267.419156,306.237272l29.232231,-7.500021l0,3.75l42.365149,0l0,-3.75l29.232218,7.500021l-29.232218,7.499982l0,-3.749991l-42.365149,0l0,3.749991l-29.232231,-7.499982z" stroke-linecap="null" stroke-linejoin="null" stroke-dasharray="null" stroke-width="2" fill="#ff0000"/>
  <path id="svg_97" transform="rotate(-18.121845245361328 276.99999999999966,268.5) " stroke="#000000" d="m193.666761,268.500015l48.319466,-7.500021l0,3.75l70.027546,0l0,-3.75l48.319444,7.500021l-48.319444,7.499982l0,-3.749991l-70.027546,0l0,3.749991l-48.319466,-7.499982z" stroke-linecap="null" stroke-linejoin="null" stroke-dasharray="null" stroke-width="2" fill="#ff0000"/>
  <path stroke="#000000" id="svg_98" transform="rotate(-19.615442276000977 296.88528442382795,288.1255798339843) " d="m231.280821,288.125606l38.039718,-7.500021l0,3.75l55.129502,0l0,-3.75l38.0397,7.500021l-38.0397,7.499982l0,-3.749991l-55.129502,0l0,3.749991l-38.039718,-7.499982z" stroke-linecap="null" stroke-linejoin="null" stroke-dasharray="null" stroke-width="2" fill="#ff0000"/>
  <path stroke="#000000" id="svg_99" transform="rotate(-29.41425323486328 365.8975219726561,316.64978027343744) " d="m300.055968,316.649804l38.17719,-7.500021l0,3.75l55.328735,0l0,-3.75l38.177172,7.500021l-38.177172,7.499982l0,-3.749991l-55.328735,0l0,3.749991l-38.17719,-7.499982z" stroke-linecap="null" stroke-linejoin="null" stroke-dasharray="null" stroke-width="2" fill="#ff0000"/>
  <path stroke="#000000" id="svg_100" transform="rotate(88.69807434082031 522.2886352539061,146.197982788086) " d="m456.62952,146.198029l38.071398,-7.500021l0,3.75l55.175415,0l0,-3.75l38.071381,7.500021l-38.071381,7.499982l0,-3.749991l-55.175415,0l0,3.749991l-38.071398,-7.499982z" stroke-linecap="null" stroke-linejoin="null" stroke-dasharray="null" stroke-width="2" fill="#0000ff"/>
  <path stroke="#000000" id="svg_101" transform="rotate(-163.20162963867188 286.9138488769532,190.2853546142578) " d="m212.87362,190.285367l42.931064,-7.500021l0,3.75l62.218342,0l0,-3.75l42.931045,7.500021l-42.931045,7.499982l0,-3.749991l-62.218342,0l0,3.749991l-42.931064,-7.499982z" stroke-linecap="null" stroke-linejoin="null" stroke-dasharray="null" stroke-width="2" fill="#0000ff"/>
  <path stroke="#000000" id="svg_102" transform="rotate(-122.7352294921875 472.65344238281256,154.29421997070312) " d="m404.801883,154.294234l39.34266,-7.500021l0,3.75l57.017806,0l0,-3.75l39.342642,7.500021l-39.342642,7.499982l0,-3.749991l-57.017806,0l0,3.749991l-39.34266,-7.499982z" stroke-linecap="null" stroke-linejoin="null" stroke-dasharray="null" stroke-width="2" fill="#0000ff"/>
  <path stroke="#000000" id="svg_103" transform="rotate(-130.06077575683594 416.08135986328125,164.27249145507812) " d="m352.790982,164.272504l36.697926,-7.500021l0,3.75l53.184894,0l0,-3.75l36.69791,7.500021l-36.69791,7.499982l0,-3.749991l-53.184894,0l0,3.749991l-36.697926,-7.499982z" stroke-linecap="null" stroke-linejoin="null" stroke-dasharray="null" stroke-width="2" fill="#0000ff"/>
  <path id="svg_104" stroke="#000000" transform="rotate(-143.9725799560547 377,174.49999999999994) " d="m309.148425,174.500014l39.34266,-7.500021l0,3.75l57.017806,0l0,-3.75l39.342642,7.500021l-39.342642,7.499982l0,-3.749991l-57.017806,0l0,3.749991l-39.34266,-7.499982z" stroke-linecap="null" stroke-linejoin="null" stroke-dasharray="null" stroke-width="2" fill="#0000ff"/>
  <path id="svg_105" stroke="#000000" transform="rotate(-151.52577209472656 340,182.5) " d="m272.148425,182.500014l39.34266,-7.500021l0,3.75l57.017806,0l0,-3.75l39.342642,7.500021l-39.342642,7.499982l0,-3.749991l-57.017806,0l0,3.749991l-39.34266,-7.499982z" stroke-linecap="null" stroke-linejoin="null" stroke-dasharray="null" stroke-width="2" fill="#0000ff"/>
 </g>
</svg>